<mxfile host="app.diagrams.net" agent="Mozilla/5.0 (Windows NT 10.0; Win64; x64) AppleWebKit/537.36 (KHTML, like Gecko) Chrome/140.0.0.0 Safari/537.36" version="28.2.5">
  <diagram name="Page-1" id="f5k4R3PXAnSatEE4t928">
    <mxGraphModel dx="1489" dy="810" grid="1" gridSize="10" guides="1" tooltips="1" connect="1" arrows="1" fold="1" page="1" pageScale="1" pageWidth="850" pageHeight="1100" math="0" shadow="0">
      <root>
        <mxCell id="0" />
        <mxCell id="1" parent="0" />
        <mxCell id="JgzNHoKb5DvwIeMfJbxF-3" value="" style="edgeStyle=orthogonalEdgeStyle;rounded=0;orthogonalLoop=1;jettySize=auto;html=1;" edge="1" parent="1" source="JgzNHoKb5DvwIeMfJbxF-1" target="JgzNHoKb5DvwIeMfJbxF-2">
          <mxGeometry relative="1" as="geometry" />
        </mxCell>
        <mxCell id="JgzNHoKb5DvwIeMfJbxF-9" value="" style="edgeStyle=orthogonalEdgeStyle;rounded=0;orthogonalLoop=1;jettySize=auto;html=1;" edge="1" parent="1" source="JgzNHoKb5DvwIeMfJbxF-1" target="JgzNHoKb5DvwIeMfJbxF-8">
          <mxGeometry relative="1" as="geometry">
            <Array as="points">
              <mxPoint x="170" y="180" />
            </Array>
          </mxGeometry>
        </mxCell>
        <mxCell id="JgzNHoKb5DvwIeMfJbxF-1" value="" style="rounded=1;whiteSpace=wrap;html=1;direction=south;fillColor=#1ba1e2;strokeColor=#006EAF;fontColor=#ffffff;" vertex="1" parent="1">
          <mxGeometry x="140" y="50" width="60" height="80" as="geometry" />
        </mxCell>
        <mxCell id="JgzNHoKb5DvwIeMfJbxF-5" value="" style="edgeStyle=orthogonalEdgeStyle;rounded=0;orthogonalLoop=1;jettySize=auto;html=1;" edge="1" parent="1" source="JgzNHoKb5DvwIeMfJbxF-2" target="JgzNHoKb5DvwIeMfJbxF-4">
          <mxGeometry relative="1" as="geometry" />
        </mxCell>
        <mxCell id="JgzNHoKb5DvwIeMfJbxF-2" value="" style="whiteSpace=wrap;html=1;rounded=1;fontColor=light-dark(#f00a0a, #ededed);" vertex="1" parent="1">
          <mxGeometry x="280" y="60" width="230" height="60" as="geometry" />
        </mxCell>
        <mxCell id="JgzNHoKb5DvwIeMfJbxF-7" value="" style="edgeStyle=orthogonalEdgeStyle;rounded=0;orthogonalLoop=1;jettySize=auto;html=1;" edge="1" parent="1" source="JgzNHoKb5DvwIeMfJbxF-4" target="JgzNHoKb5DvwIeMfJbxF-6">
          <mxGeometry relative="1" as="geometry" />
        </mxCell>
        <mxCell id="JgzNHoKb5DvwIeMfJbxF-30" style="edgeStyle=orthogonalEdgeStyle;rounded=0;orthogonalLoop=1;jettySize=auto;html=1;" edge="1" parent="1" source="JgzNHoKb5DvwIeMfJbxF-4">
          <mxGeometry relative="1" as="geometry">
            <mxPoint x="600" y="380" as="targetPoint" />
          </mxGeometry>
        </mxCell>
        <mxCell id="JgzNHoKb5DvwIeMfJbxF-4" value="Seamless API Integration with BPA" style="whiteSpace=wrap;html=1;rounded=1;" vertex="1" parent="1">
          <mxGeometry x="650" y="350" width="120" height="60" as="geometry" />
        </mxCell>
        <mxCell id="JgzNHoKb5DvwIeMfJbxF-34" value="" style="edgeStyle=orthogonalEdgeStyle;rounded=0;orthogonalLoop=1;jettySize=auto;html=1;" edge="1" parent="1" source="JgzNHoKb5DvwIeMfJbxF-6" target="JgzNHoKb5DvwIeMfJbxF-33">
          <mxGeometry relative="1" as="geometry" />
        </mxCell>
        <mxCell id="JgzNHoKb5DvwIeMfJbxF-6" value="&lt;font style=&quot;font-size: 20px;&quot;&gt;Bharat Pashudhan App&lt;/font&gt;" style="whiteSpace=wrap;html=1;rounded=1;direction=south;" vertex="1" parent="1">
          <mxGeometry x="800" y="285" width="140" height="190" as="geometry" />
        </mxCell>
        <mxCell id="JgzNHoKb5DvwIeMfJbxF-11" value="" style="edgeStyle=orthogonalEdgeStyle;rounded=0;orthogonalLoop=1;jettySize=auto;html=1;" edge="1" parent="1" source="JgzNHoKb5DvwIeMfJbxF-8" target="JgzNHoKb5DvwIeMfJbxF-10">
          <mxGeometry relative="1" as="geometry" />
        </mxCell>
        <mxCell id="JgzNHoKb5DvwIeMfJbxF-8" value="" style="whiteSpace=wrap;html=1;rounded=1;" vertex="1" parent="1">
          <mxGeometry x="250" y="150" width="120" height="60" as="geometry" />
        </mxCell>
        <mxCell id="JgzNHoKb5DvwIeMfJbxF-13" value="" style="edgeStyle=orthogonalEdgeStyle;rounded=0;orthogonalLoop=1;jettySize=auto;html=1;" edge="1" parent="1" source="JgzNHoKb5DvwIeMfJbxF-10" target="JgzNHoKb5DvwIeMfJbxF-12">
          <mxGeometry relative="1" as="geometry" />
        </mxCell>
        <mxCell id="JgzNHoKb5DvwIeMfJbxF-10" value="" style="whiteSpace=wrap;html=1;rounded=1;" vertex="1" parent="1">
          <mxGeometry x="420" y="150" width="120" height="60" as="geometry" />
        </mxCell>
        <mxCell id="JgzNHoKb5DvwIeMfJbxF-32" value="" style="edgeStyle=orthogonalEdgeStyle;rounded=0;orthogonalLoop=1;jettySize=auto;html=1;" edge="1" parent="1" source="JgzNHoKb5DvwIeMfJbxF-12" target="JgzNHoKb5DvwIeMfJbxF-31">
          <mxGeometry relative="1" as="geometry" />
        </mxCell>
        <mxCell id="JgzNHoKb5DvwIeMfJbxF-12" value="" style="whiteSpace=wrap;html=1;rounded=1;" vertex="1" parent="1">
          <mxGeometry x="365" y="259" width="230" height="270" as="geometry" />
        </mxCell>
        <mxCell id="JgzNHoKb5DvwIeMfJbxF-16" style="edgeStyle=orthogonalEdgeStyle;rounded=0;orthogonalLoop=1;jettySize=auto;html=1;exitX=0;exitY=0.5;exitDx=0;exitDy=0;entryX=-0.007;entryY=0.465;entryDx=0;entryDy=0;entryPerimeter=0;" edge="1" parent="1" source="JgzNHoKb5DvwIeMfJbxF-12" target="JgzNHoKb5DvwIeMfJbxF-12">
          <mxGeometry relative="1" as="geometry" />
        </mxCell>
        <mxCell id="JgzNHoKb5DvwIeMfJbxF-19" style="edgeStyle=orthogonalEdgeStyle;rounded=0;orthogonalLoop=1;jettySize=auto;html=1;exitX=0.5;exitY=1;exitDx=0;exitDy=0;" edge="1" parent="1" source="JgzNHoKb5DvwIeMfJbxF-12" target="JgzNHoKb5DvwIeMfJbxF-12">
          <mxGeometry relative="1" as="geometry" />
        </mxCell>
        <mxCell id="JgzNHoKb5DvwIeMfJbxF-20" value="" style="endArrow=none;html=1;rounded=0;entryX=1.003;entryY=0.153;entryDx=0;entryDy=0;entryPerimeter=0;exitX=0.015;exitY=0.156;exitDx=0;exitDy=0;exitPerimeter=0;elbow=vertical;" edge="1" parent="1">
          <mxGeometry width="50" height="50" relative="1" as="geometry">
            <mxPoint x="367.76000000000005" y="310.81" as="sourcePoint" />
            <mxPoint x="595" y="309.99999999999994" as="targetPoint" />
            <Array as="points" />
          </mxGeometry>
        </mxCell>
        <mxCell id="JgzNHoKb5DvwIeMfJbxF-21" value="" style="endArrow=none;html=1;rounded=0;entryX=1.003;entryY=0.153;entryDx=0;entryDy=0;entryPerimeter=0;exitX=0.015;exitY=0.156;exitDx=0;exitDy=0;exitPerimeter=0;elbow=vertical;" edge="1" parent="1">
          <mxGeometry width="50" height="50" relative="1" as="geometry">
            <mxPoint x="366" y="380.5" as="sourcePoint" />
            <mxPoint x="594" y="379.5" as="targetPoint" />
            <Array as="points" />
          </mxGeometry>
        </mxCell>
        <mxCell id="JgzNHoKb5DvwIeMfJbxF-23" value="" style="endArrow=none;html=1;rounded=0;entryX=1.003;entryY=0.153;entryDx=0;entryDy=0;entryPerimeter=0;exitX=0.015;exitY=0.156;exitDx=0;exitDy=0;exitPerimeter=0;elbow=vertical;" edge="1" parent="1">
          <mxGeometry width="50" height="50" relative="1" as="geometry">
            <mxPoint x="365" y="476" as="sourcePoint" />
            <mxPoint x="593" y="475" as="targetPoint" />
          </mxGeometry>
        </mxCell>
        <mxCell id="JgzNHoKb5DvwIeMfJbxF-29" style="edgeStyle=orthogonalEdgeStyle;rounded=0;orthogonalLoop=1;jettySize=auto;html=1;" edge="1" parent="1" source="JgzNHoKb5DvwIeMfJbxF-25">
          <mxGeometry relative="1" as="geometry">
            <mxPoint x="360" y="380" as="targetPoint" />
          </mxGeometry>
        </mxCell>
        <mxCell id="JgzNHoKb5DvwIeMfJbxF-25" value="" style="rounded=1;whiteSpace=wrap;html=1;direction=south;" vertex="1" parent="1">
          <mxGeometry x="160" y="320" width="110" height="120" as="geometry" />
        </mxCell>
        <mxCell id="JgzNHoKb5DvwIeMfJbxF-31" value="" style="rhombus;whiteSpace=wrap;html=1;rounded=1;" vertex="1" parent="1">
          <mxGeometry x="395" y="565" width="170" height="135" as="geometry" />
        </mxCell>
        <mxCell id="JgzNHoKb5DvwIeMfJbxF-40" style="edgeStyle=orthogonalEdgeStyle;rounded=0;orthogonalLoop=1;jettySize=auto;html=1;exitX=0;exitY=0.5;exitDx=0;exitDy=0;entryX=1;entryY=0.5;entryDx=0;entryDy=0;" edge="1" parent="1" source="JgzNHoKb5DvwIeMfJbxF-33" target="JgzNHoKb5DvwIeMfJbxF-31">
          <mxGeometry relative="1" as="geometry">
            <mxPoint x="640" y="620" as="targetPoint" />
          </mxGeometry>
        </mxCell>
        <mxCell id="JgzNHoKb5DvwIeMfJbxF-33" value="" style="whiteSpace=wrap;html=1;rounded=1;" vertex="1" parent="1">
          <mxGeometry x="810" y="520" width="120" height="60" as="geometry" />
        </mxCell>
        <mxCell id="JgzNHoKb5DvwIeMfJbxF-38" style="edgeStyle=orthogonalEdgeStyle;rounded=0;orthogonalLoop=1;jettySize=auto;html=1;entryX=0;entryY=0.5;entryDx=0;entryDy=0;" edge="1" parent="1" source="JgzNHoKb5DvwIeMfJbxF-36" target="JgzNHoKb5DvwIeMfJbxF-31">
          <mxGeometry relative="1" as="geometry" />
        </mxCell>
        <mxCell id="JgzNHoKb5DvwIeMfJbxF-51" style="edgeStyle=orthogonalEdgeStyle;rounded=0;orthogonalLoop=1;jettySize=auto;html=1;entryX=0;entryY=0.5;entryDx=0;entryDy=0;" edge="1" parent="1" source="JgzNHoKb5DvwIeMfJbxF-36" target="JgzNHoKb5DvwIeMfJbxF-47">
          <mxGeometry relative="1" as="geometry" />
        </mxCell>
        <mxCell id="JgzNHoKb5DvwIeMfJbxF-36" value="" style="rounded=1;whiteSpace=wrap;html=1;" vertex="1" parent="1">
          <mxGeometry x="145" y="597.5" width="105" height="70" as="geometry" />
        </mxCell>
        <mxCell id="JgzNHoKb5DvwIeMfJbxF-52" style="edgeStyle=orthogonalEdgeStyle;rounded=0;orthogonalLoop=1;jettySize=auto;html=1;entryX=0.5;entryY=1;entryDx=0;entryDy=0;" edge="1" parent="1" source="JgzNHoKb5DvwIeMfJbxF-47" target="JgzNHoKb5DvwIeMfJbxF-31">
          <mxGeometry relative="1" as="geometry">
            <mxPoint x="480" y="710" as="targetPoint" />
            <Array as="points">
              <mxPoint x="480" y="740" />
            </Array>
          </mxGeometry>
        </mxCell>
        <mxCell id="JgzNHoKb5DvwIeMfJbxF-47" value="" style="rounded=1;whiteSpace=wrap;html=1;" vertex="1" parent="1">
          <mxGeometry x="220" y="720" width="190" height="60" as="geometry" />
        </mxCell>
        <mxCell id="JgzNHoKb5DvwIeMfJbxF-54" value="" style="rounded=1;whiteSpace=wrap;html=1;" vertex="1" parent="1">
          <mxGeometry x="575" y="716.25" width="180" height="67.5" as="geometry" />
        </mxCell>
        <mxCell id="JgzNHoKb5DvwIeMfJbxF-55" value="Start/FLW login" style="text;html=1;align=center;verticalAlign=middle;whiteSpace=wrap;rounded=0;" vertex="1" parent="1">
          <mxGeometry x="140" y="75" width="60" height="30" as="geometry" />
        </mxCell>
        <mxCell id="JgzNHoKb5DvwIeMfJbxF-56" value="Web &amp;amp; Mobile Interface (Multilingual)" style="text;html=1;align=center;verticalAlign=middle;whiteSpace=wrap;rounded=0;" vertex="1" parent="1">
          <mxGeometry x="290" y="75" width="130" height="30" as="geometry" />
        </mxCell>
        <mxCell id="JgzNHoKb5DvwIeMfJbxF-59" value="Upload Animal Image" style="text;html=1;align=center;verticalAlign=middle;whiteSpace=wrap;rounded=0;" vertex="1" parent="1">
          <mxGeometry x="265" y="165" width="90" height="30" as="geometry" />
        </mxCell>
        <mxCell id="JgzNHoKb5DvwIeMfJbxF-61" value="Receive Breed Prediction" style="text;html=1;align=center;verticalAlign=middle;whiteSpace=wrap;rounded=0;" vertex="1" parent="1">
          <mxGeometry x="430" y="165" width="100" height="30" as="geometry" />
        </mxCell>
        <mxCell id="JgzNHoKb5DvwIeMfJbxF-62" value="Ai Model Backend (Deep learning for breed classification)" style="text;html=1;align=center;verticalAlign=middle;whiteSpace=wrap;rounded=0;" vertex="1" parent="1">
          <mxGeometry x="385" y="270" width="190" height="30" as="geometry" />
        </mxCell>
        <mxCell id="JgzNHoKb5DvwIeMfJbxF-63" value="Trained Models using manual dataset collection&amp;nbsp;&lt;div&gt;(62 to 67 breeds)&lt;/div&gt;" style="text;html=1;align=center;verticalAlign=middle;whiteSpace=wrap;rounded=0;" vertex="1" parent="1">
          <mxGeometry x="375" y="330" width="210" height="30" as="geometry" />
        </mxCell>
        <mxCell id="JgzNHoKb5DvwIeMfJbxF-64" value="Real Time Processing ( &amp;lt; 5 seconds )" style="text;html=1;align=center;verticalAlign=middle;whiteSpace=wrap;rounded=0;" vertex="1" parent="1">
          <mxGeometry x="420" y="390" width="120" height="30" as="geometry" />
        </mxCell>
        <mxCell id="JgzNHoKb5DvwIeMfJbxF-67" value="" style="endArrow=none;html=1;rounded=0;entryX=1.003;entryY=0.153;entryDx=0;entryDy=0;entryPerimeter=0;exitX=0.015;exitY=0.156;exitDx=0;exitDy=0;exitPerimeter=0;elbow=vertical;" edge="1" parent="1">
          <mxGeometry width="50" height="50" relative="1" as="geometry">
            <mxPoint x="367" y="431" as="sourcePoint" />
            <mxPoint x="595" y="430" as="targetPoint" />
            <Array as="points" />
          </mxGeometry>
        </mxCell>
        <mxCell id="JgzNHoKb5DvwIeMfJbxF-68" value="Confidence Scoring system" style="text;html=1;align=center;verticalAlign=middle;whiteSpace=wrap;rounded=0;" vertex="1" parent="1">
          <mxGeometry x="430" y="440" width="100" height="30" as="geometry" />
        </mxCell>
        <mxCell id="JgzNHoKb5DvwIeMfJbxF-69" value="Progressive&amp;nbsp; enhancement module" style="text;html=1;align=center;verticalAlign=middle;whiteSpace=wrap;rounded=0;" vertex="1" parent="1">
          <mxGeometry x="420" y="490" width="120" height="30" as="geometry" />
        </mxCell>
        <mxCell id="JgzNHoKb5DvwIeMfJbxF-70" value="" style="rounded=0;whiteSpace=wrap;html=1;" vertex="1" parent="1">
          <mxGeometry x="175" y="370" width="80" height="50" as="geometry" />
        </mxCell>
        <mxCell id="JgzNHoKb5DvwIeMfJbxF-71" value="Local Model Inference" style="text;html=1;align=center;verticalAlign=middle;whiteSpace=wrap;rounded=0;" vertex="1" parent="1">
          <mxGeometry x="185" y="379" width="60" height="30" as="geometry" />
        </mxCell>
        <mxCell id="JgzNHoKb5DvwIeMfJbxF-72" value="&lt;b&gt;Offline Capability&lt;/b&gt;" style="text;html=1;align=center;verticalAlign=middle;whiteSpace=wrap;rounded=0;" vertex="1" parent="1">
          <mxGeometry x="185" y="330" width="60" height="30" as="geometry" />
        </mxCell>
        <mxCell id="JgzNHoKb5DvwIeMfJbxF-73" value="Confidence Score &amp;gt; Threshold" style="text;html=1;align=center;verticalAlign=middle;whiteSpace=wrap;rounded=0;" vertex="1" parent="1">
          <mxGeometry x="420" y="617.5" width="120" height="30" as="geometry" />
        </mxCell>
        <mxCell id="JgzNHoKb5DvwIeMfJbxF-74" value="Data Privacy and secure storage" style="text;html=1;align=center;verticalAlign=middle;whiteSpace=wrap;rounded=0;" vertex="1" parent="1">
          <mxGeometry x="820" y="535" width="100" height="30" as="geometry" />
        </mxCell>
        <mxCell id="JgzNHoKb5DvwIeMfJbxF-75" value="Display Offline Result" style="text;html=1;align=center;verticalAlign=middle;whiteSpace=wrap;rounded=0;" vertex="1" parent="1">
          <mxGeometry x="156.5" y="617.5" width="82" height="30" as="geometry" />
        </mxCell>
        <mxCell id="JgzNHoKb5DvwIeMfJbxF-77" style="edgeStyle=orthogonalEdgeStyle;rounded=0;orthogonalLoop=1;jettySize=auto;html=1;entryX=0;entryY=0.5;entryDx=0;entryDy=0;" edge="1" parent="1" target="JgzNHoKb5DvwIeMfJbxF-54">
          <mxGeometry relative="1" as="geometry">
            <mxPoint x="410" y="750" as="sourcePoint" />
          </mxGeometry>
        </mxCell>
        <mxCell id="JgzNHoKb5DvwIeMfJbxF-80" value="" style="rounded=0;whiteSpace=wrap;html=1;" vertex="1" parent="1">
          <mxGeometry x="430" y="70" width="70" height="40" as="geometry" />
        </mxCell>
        <mxCell id="JgzNHoKb5DvwIeMfJbxF-76" value="Display Confirmed Breed.&amp;nbsp;&lt;div&gt;Ex - &quot;Sahiwal 98 % Confidence&quot;&lt;/div&gt;" style="text;html=1;align=center;verticalAlign=middle;whiteSpace=wrap;rounded=0;" vertex="1" parent="1">
          <mxGeometry x="230" y="727.5" width="170" height="45" as="geometry" />
        </mxCell>
        <mxCell id="JgzNHoKb5DvwIeMfJbxF-79" value="Flag for Human Verification. Ex - &quot;Gir 60 %&quot;" style="text;html=1;align=center;verticalAlign=middle;whiteSpace=wrap;rounded=0;" vertex="1" parent="1">
          <mxGeometry x="590" y="735" width="150" height="30" as="geometry" />
        </mxCell>
        <mxCell id="JgzNHoKb5DvwIeMfJbxF-81" value="User Friendly" style="text;html=1;align=center;verticalAlign=middle;whiteSpace=wrap;rounded=0;" vertex="1" parent="1">
          <mxGeometry x="435" y="75" width="60" height="30" as="geometry" />
        </mxCell>
      </root>
    </mxGraphModel>
  </diagram>
</mxfile>
